# xmcd
#
# Track frame offsets:
#	150
#	11685
#	24213
#	37093
#	49173
#	59148
#	73095
#	86135
#	101273
#	115263
#	126215
#	135798
#	147375
#	164360
#
# Disc length: 2331 seconds
#
# Revision: 4
# Processed by: cddbd v1.5.2PL0 Copyright (c) Steve Scherf et al.
# Submitted via: EasyCDDAExtractor 11.1.0.1
#
DISCID=c309190e
DTITLE=Tina and Ike Turner - Ike and Tina Turner Gold
DYEAR=1900
DGENRE=Blues
TTITLE0=Knock On Wood
TTITLE1=Shame Shame Shame
TTITLE2=Get Back
TTITLE3=Shake
TTITLE4=Feel It
TTITLE5=It`s Gonna Work Out Fine
TTITLE6=I Know
TTITLE7=Crazu `bout You Baby
TTITLE8=It Sho`ain`t Me
TTITLE9=Nothing You Can Do Boy
TTITLE10=Ain`t Nobody`s Business
TTITLE11=Somebody Somewhere
TTITLE12=I Smell Trouble
TTITLE13=You Got What You Wanted
EXTD=
EXTT0=
EXTT1=
EXTT2=
EXTT3=
EXTT4=
EXTT5=
EXTT6=
EXTT7=
EXTT8=
EXTT9=
EXTT10=
EXTT11=
EXTT12=
EXTT13=
PLAYORDER=
